<mxfile host="Electron" agent="Mozilla/5.0 (Macintosh; Intel Mac OS X 10_15_7) AppleWebKit/537.36 (KHTML, like Gecko) draw.io/28.2.8 Chrome/140.0.7339.240 Electron/38.4.0 Safari/537.36" version="28.2.8">
  <diagram name="Page-1" id="aOCVfJsH6MpQBmWS7sm0">
    <mxGraphModel dx="1018" dy="1092" grid="1" gridSize="10" guides="1" tooltips="1" connect="1" arrows="1" fold="1" page="0" pageScale="1" pageWidth="1169" pageHeight="827" math="0" shadow="0">
      <root>
        <mxCell id="0" />
        <mxCell id="1" parent="0" />
        <mxCell id="QXAxHVFIH-nxL2YKpbsj-4" value="" style="rounded=0;whiteSpace=wrap;html=1;fillColor=#d5e8d4;strokeColor=#82b366;" parent="1" vertex="1">
          <mxGeometry x="550" y="-30" width="850" height="340" as="geometry" />
        </mxCell>
        <mxCell id="QXAxHVFIH-nxL2YKpbsj-13" value="" style="ellipse;whiteSpace=wrap;html=1;dashed=1;" parent="1" vertex="1">
          <mxGeometry x="560" y="-20" width="350" height="220" as="geometry" />
        </mxCell>
        <mxCell id="QXAxHVFIH-nxL2YKpbsj-1" value="How to store passwords safely in the database" style="text;strokeColor=#82b366;align=center;fillColor=#d5e8d4;html=1;verticalAlign=middle;whiteSpace=wrap;rounded=0;fontSize=20;fontStyle=1" parent="1" vertex="1">
          <mxGeometry x="370" y="-110" width="460" height="30" as="geometry" />
        </mxCell>
        <mxCell id="QXAxHVFIH-nxL2YKpbsj-2" value="&lt;b&gt;Things not to do&lt;/b&gt;&lt;div style=&quot;&quot;&gt;&lt;ul&gt;&lt;li style=&quot;text-align: left;&quot;&gt;&lt;b&gt;storing passwords in plain text is not a good idea because anyone with internal access can see them&lt;/b&gt;&lt;/li&gt;&lt;li style=&quot;text-align: left;&quot;&gt;&lt;b style=&quot;background-color: rgb(196, 255, 249);&quot;&gt;Storing password hashes directly is not sufficient because it is pruned to pre-computation attacks such as rainbow tables.&lt;/b&gt;&lt;/li&gt;&lt;li style=&quot;text-align: left;&quot;&gt;&lt;b&gt;To mitigate pre-computation attacks we salt the password.&lt;/b&gt;&lt;/li&gt;&lt;/ul&gt;&lt;b style=&quot;text-align: left; background-color: transparent; color: light-dark(rgb(0, 0, 0), rgb(255, 255, 255));&quot;&gt;&amp;nbsp; What is Salt ?&amp;nbsp;&lt;/b&gt;&lt;/div&gt;&lt;div style=&quot;&quot;&gt;&lt;b style=&quot;text-align: left; background-color: transparent; color: light-dark(rgb(0, 0, 0), rgb(255, 255, 255));&quot;&gt;According to OWASP guidelines &lt;/b&gt;&lt;b style=&quot;text-align: left; color: light-dark(rgb(0, 0, 0), rgb(255, 255, 255)); background-color: rgb(183, 255, 245);&quot;&gt;&quot;a salt is unique randomly generated string that is added to each password as part of the hashing process.&quot;&lt;/b&gt;&lt;/div&gt;&lt;div style=&quot;&quot;&gt;&lt;b style=&quot;text-align: left; color: light-dark(rgb(0, 0, 0), rgb(255, 255, 255)); background-color: rgb(183, 255, 245);&quot;&gt;&lt;br&gt;&lt;/b&gt;&lt;/div&gt;&lt;div style=&quot;&quot;&gt;&lt;b&gt;How to Store a password and salt ?&lt;/b&gt;&lt;/div&gt;&lt;div style=&quot;&quot;&gt;&lt;ol&gt;&lt;li style=&quot;text-align: left;&quot;&gt;&lt;b&gt;&amp;nbsp;A salt is not meant to be secret and it can be stored in plain text in the database. It is used to ensure the hash result is unique to each password&amp;nbsp;&lt;/b&gt;&lt;/li&gt;&lt;li style=&quot;text-align: left;&quot;&gt;&lt;b&gt;The password can be stored in the database using the following format:&amp;nbsp; &amp;nbsp;hash( password + hash )&lt;/b&gt;&lt;/li&gt;&lt;/ol&gt;&lt;b&gt;How to Validate a password ?&lt;/b&gt;&lt;/div&gt;&lt;div style=&quot;&quot;&gt;&lt;b&gt;&lt;br&gt;&lt;/b&gt;&lt;/div&gt;&lt;div style=&quot;&quot;&gt;&lt;b&gt;To validate a password, it can go through following process:&lt;/b&gt;&lt;/div&gt;&lt;div style=&quot;&quot;&gt;&lt;ol&gt;&lt;li style=&quot;text-align: left;&quot;&gt;&lt;b&gt;A client enters the password.&lt;/b&gt;&lt;/li&gt;&lt;li style=&quot;text-align: left;&quot;&gt;&lt;b&gt;The system fetches the corresponding salt from the database.&lt;/b&gt;&lt;/li&gt;&lt;li style=&quot;text-align: left;&quot;&gt;&lt;b&gt;The system appends the salt to the password and hashes it. Let&#39;s call the hashed value H1.&lt;/b&gt;&lt;/li&gt;&lt;li style=&quot;text-align: left;&quot;&gt;&lt;b&gt;The system then compares H1 and H2 where H2 is the hash stored in the database. if they are the same, the password is valid.&lt;/b&gt;&lt;/li&gt;&lt;/ol&gt;&lt;/div&gt;" style="text;strokeColor=none;align=center;fillColor=none;html=1;verticalAlign=middle;whiteSpace=wrap;rounded=0;" parent="1" vertex="1">
          <mxGeometry x="50" y="30" width="420" height="390" as="geometry" />
        </mxCell>
        <mxCell id="QXAxHVFIH-nxL2YKpbsj-9" value="&lt;b&gt;Password&amp;nbsp;&lt;/b&gt;" style="rounded=0;whiteSpace=wrap;html=1;fillColor=#ffe6cc;strokeColor=#d79b00;" parent="1" vertex="1">
          <mxGeometry x="610" y="100" width="120" height="60" as="geometry" />
        </mxCell>
        <mxCell id="QXAxHVFIH-nxL2YKpbsj-10" value="&lt;b&gt;Salt&amp;nbsp;&lt;/b&gt;" style="rounded=0;whiteSpace=wrap;html=1;fillColor=#f8cecc;strokeColor=#b85450;" parent="1" vertex="1">
          <mxGeometry x="730" y="100" width="120" height="60" as="geometry" />
        </mxCell>
        <mxCell id="QXAxHVFIH-nxL2YKpbsj-11" value="&lt;b&gt;provided by client&lt;/b&gt;" style="shape=callout;whiteSpace=wrap;html=1;perimeter=calloutPerimeter;" parent="1" vertex="1">
          <mxGeometry x="610" y="20" width="120" height="80" as="geometry" />
        </mxCell>
        <mxCell id="QXAxHVFIH-nxL2YKpbsj-12" value="&lt;b&gt;Randomly generated&lt;/b&gt;" style="shape=callout;whiteSpace=wrap;html=1;perimeter=calloutPerimeter;" parent="1" vertex="1">
          <mxGeometry x="740" y="20" width="120" height="80" as="geometry" />
        </mxCell>
        <mxCell id="QXAxHVFIH-nxL2YKpbsj-14" value="" style="shape=table;startSize=0;container=1;collapsible=0;childLayout=tableLayout;fillColor=#ffe6cc;strokeColor=#d79b00;" parent="1" vertex="1">
          <mxGeometry x="1150" y="30" width="180" height="80" as="geometry" />
        </mxCell>
        <mxCell id="QXAxHVFIH-nxL2YKpbsj-15" value="" style="shape=tableRow;horizontal=0;startSize=0;swimlaneHead=0;swimlaneBody=0;strokeColor=inherit;top=0;left=0;bottom=0;right=0;collapsible=0;dropTarget=0;fillColor=none;points=[[0,0.5],[1,0.5]];portConstraint=eastwest;" parent="QXAxHVFIH-nxL2YKpbsj-14" vertex="1">
          <mxGeometry width="180" height="40" as="geometry" />
        </mxCell>
        <mxCell id="QXAxHVFIH-nxL2YKpbsj-16" value="&lt;b&gt;id&lt;/b&gt;" style="shape=partialRectangle;html=1;whiteSpace=wrap;connectable=0;strokeColor=inherit;overflow=hidden;fillColor=none;top=0;left=0;bottom=0;right=0;pointerEvents=1;" parent="QXAxHVFIH-nxL2YKpbsj-15" vertex="1">
          <mxGeometry width="60" height="40" as="geometry">
            <mxRectangle width="60" height="40" as="alternateBounds" />
          </mxGeometry>
        </mxCell>
        <mxCell id="QXAxHVFIH-nxL2YKpbsj-17" value="&lt;b&gt;salt&lt;/b&gt;" style="shape=partialRectangle;html=1;whiteSpace=wrap;connectable=0;strokeColor=inherit;overflow=hidden;fillColor=none;top=0;left=0;bottom=0;right=0;pointerEvents=1;" parent="QXAxHVFIH-nxL2YKpbsj-15" vertex="1">
          <mxGeometry x="60" width="60" height="40" as="geometry">
            <mxRectangle width="60" height="40" as="alternateBounds" />
          </mxGeometry>
        </mxCell>
        <mxCell id="QXAxHVFIH-nxL2YKpbsj-18" value="&lt;b&gt;hash&lt;/b&gt;" style="shape=partialRectangle;html=1;whiteSpace=wrap;connectable=0;strokeColor=inherit;overflow=hidden;fillColor=none;top=0;left=0;bottom=0;right=0;pointerEvents=1;" parent="QXAxHVFIH-nxL2YKpbsj-15" vertex="1">
          <mxGeometry x="120" width="60" height="40" as="geometry">
            <mxRectangle width="60" height="40" as="alternateBounds" />
          </mxGeometry>
        </mxCell>
        <mxCell id="QXAxHVFIH-nxL2YKpbsj-19" value="" style="shape=tableRow;horizontal=0;startSize=0;swimlaneHead=0;swimlaneBody=0;strokeColor=inherit;top=0;left=0;bottom=0;right=0;collapsible=0;dropTarget=0;fillColor=none;points=[[0,0.5],[1,0.5]];portConstraint=eastwest;" parent="QXAxHVFIH-nxL2YKpbsj-14" vertex="1">
          <mxGeometry y="40" width="180" height="40" as="geometry" />
        </mxCell>
        <mxCell id="QXAxHVFIH-nxL2YKpbsj-20" value="" style="shape=partialRectangle;html=1;whiteSpace=wrap;connectable=0;strokeColor=inherit;overflow=hidden;fillColor=none;top=0;left=0;bottom=0;right=0;pointerEvents=1;" parent="QXAxHVFIH-nxL2YKpbsj-19" vertex="1">
          <mxGeometry width="60" height="40" as="geometry">
            <mxRectangle width="60" height="40" as="alternateBounds" />
          </mxGeometry>
        </mxCell>
        <mxCell id="QXAxHVFIH-nxL2YKpbsj-21" value="&lt;span style=&quot;background-color: rgb(255, 206, 159);&quot;&gt;1&lt;/span&gt;" style="shape=partialRectangle;html=1;whiteSpace=wrap;connectable=0;strokeColor=inherit;overflow=hidden;fillColor=none;top=0;left=0;bottom=0;right=0;pointerEvents=1;" parent="QXAxHVFIH-nxL2YKpbsj-19" vertex="1">
          <mxGeometry x="60" width="60" height="40" as="geometry">
            <mxRectangle width="60" height="40" as="alternateBounds" />
          </mxGeometry>
        </mxCell>
        <mxCell id="QXAxHVFIH-nxL2YKpbsj-22" value="&lt;span style=&quot;background-color: rgb(248, 206, 204);&quot;&gt;2&lt;/span&gt;" style="shape=partialRectangle;html=1;whiteSpace=wrap;connectable=0;strokeColor=inherit;overflow=hidden;fillColor=none;top=0;left=0;bottom=0;right=0;pointerEvents=1;" parent="QXAxHVFIH-nxL2YKpbsj-19" vertex="1">
          <mxGeometry x="120" width="60" height="40" as="geometry">
            <mxRectangle width="60" height="40" as="alternateBounds" />
          </mxGeometry>
        </mxCell>
        <mxCell id="QXAxHVFIH-nxL2YKpbsj-31" style="edgeStyle=orthogonalEdgeStyle;rounded=0;orthogonalLoop=1;jettySize=auto;html=1;exitX=1;exitY=0.5;exitDx=0;exitDy=0;entryX=0.508;entryY=0.982;entryDx=0;entryDy=0;entryPerimeter=0;flowAnimation=1;" parent="1" source="QXAxHVFIH-nxL2YKpbsj-10" target="QXAxHVFIH-nxL2YKpbsj-19" edge="1">
          <mxGeometry relative="1" as="geometry" />
        </mxCell>
        <mxCell id="QXAxHVFIH-nxL2YKpbsj-32" style="edgeStyle=orthogonalEdgeStyle;rounded=0;orthogonalLoop=1;jettySize=auto;html=1;exitX=0.5;exitY=1;exitDx=0;exitDy=0;entryX=0.846;entryY=1.005;entryDx=0;entryDy=0;entryPerimeter=0;flowAnimation=1;" parent="1" edge="1">
          <mxGeometry relative="1" as="geometry">
            <mxPoint x="670" y="159.8" as="sourcePoint" />
            <mxPoint x="1302.2799999999997" y="110.00000000000004" as="targetPoint" />
            <Array as="points">
              <mxPoint x="670" y="289.8" />
              <mxPoint x="1302" y="289.8" />
            </Array>
          </mxGeometry>
        </mxCell>
        <mxCell id="QXAxHVFIH-nxL2YKpbsj-33" value="Hash(password + Salt)" style="text;strokeColor=none;align=center;fillColor=none;html=1;verticalAlign=middle;whiteSpace=wrap;rounded=0;fontStyle=1;labelBackgroundColor=#F5F5F5;" parent="1" vertex="1">
          <mxGeometry x="910" y="259.8" width="160" height="30" as="geometry" />
        </mxCell>
        <mxCell id="QXAxHVFIH-nxL2YKpbsj-36" value="" style="rounded=1;whiteSpace=wrap;html=1;dashed=1;fillColor=#f8cecc;strokeColor=#b85450;shadow=0;glass=0;opacity=30;" parent="1" vertex="1">
          <mxGeometry x="1120" width="250" height="160" as="geometry" />
        </mxCell>
        <mxCell id="QXAxHVFIH-nxL2YKpbsj-37" value="DB" style="strokeWidth=2;html=1;shape=mxgraph.flowchart.database;whiteSpace=wrap;" parent="1" vertex="1">
          <mxGeometry x="1340" y="130" width="40" height="50" as="geometry" />
        </mxCell>
        <mxCell id="QXAxHVFIH-nxL2YKpbsj-38" value="Store a Password" style="text;strokeColor=none;align=center;fillColor=none;html=1;verticalAlign=middle;whiteSpace=wrap;rounded=0;fontStyle=1" parent="1" vertex="1">
          <mxGeometry x="920" y="-30" width="140" height="30" as="geometry" />
        </mxCell>
        <mxCell id="QXAxHVFIH-nxL2YKpbsj-39" value="" style="rounded=0;whiteSpace=wrap;html=1;fillColor=#d5e8d4;strokeColor=#82b366;" parent="1" vertex="1">
          <mxGeometry x="550" y="400" width="850" height="340" as="geometry" />
        </mxCell>
        <mxCell id="KrNdhbl7F8nNGSPyhRoK-1" style="edgeStyle=orthogonalEdgeStyle;rounded=0;orthogonalLoop=1;jettySize=auto;html=1;exitX=0.5;exitY=1;exitDx=0;exitDy=0;entryX=0.5;entryY=0;entryDx=0;entryDy=0;flowAnimation=1;" edge="1" parent="1" source="QXAxHVFIH-nxL2YKpbsj-40" target="QXAxHVFIH-nxL2YKpbsj-56">
          <mxGeometry relative="1" as="geometry" />
        </mxCell>
        <mxCell id="QXAxHVFIH-nxL2YKpbsj-40" value="" style="ellipse;whiteSpace=wrap;html=1;dashed=1;" parent="1" vertex="1">
          <mxGeometry x="560" y="410" width="350" height="220" as="geometry" />
        </mxCell>
        <mxCell id="QXAxHVFIH-nxL2YKpbsj-41" value="&lt;b&gt;Password&amp;nbsp;&lt;/b&gt;" style="rounded=0;whiteSpace=wrap;html=1;fillColor=#ffe6cc;strokeColor=#d79b00;" parent="1" vertex="1">
          <mxGeometry x="610" y="530" width="120" height="60" as="geometry" />
        </mxCell>
        <mxCell id="QXAxHVFIH-nxL2YKpbsj-42" value="&lt;b&gt;Salt&amp;nbsp;&lt;/b&gt;" style="rounded=0;whiteSpace=wrap;html=1;fillColor=#f8cecc;strokeColor=#b85450;" parent="1" vertex="1">
          <mxGeometry x="730" y="530" width="120" height="60" as="geometry" />
        </mxCell>
        <mxCell id="QXAxHVFIH-nxL2YKpbsj-43" value="&lt;b&gt;1&lt;/b&gt;&lt;div&gt;&lt;b&gt;provided by client&lt;/b&gt;&lt;/div&gt;" style="shape=callout;whiteSpace=wrap;html=1;perimeter=calloutPerimeter;" parent="1" vertex="1">
          <mxGeometry x="610" y="450" width="120" height="80" as="geometry" />
        </mxCell>
        <mxCell id="QXAxHVFIH-nxL2YKpbsj-61" style="edgeStyle=orthogonalEdgeStyle;rounded=0;orthogonalLoop=1;jettySize=auto;html=1;exitX=0.5;exitY=1;exitDx=0;exitDy=0;flowAnimation=1;" parent="1" source="QXAxHVFIH-nxL2YKpbsj-45" target="QXAxHVFIH-nxL2YKpbsj-42" edge="1">
          <mxGeometry relative="1" as="geometry" />
        </mxCell>
        <mxCell id="QXAxHVFIH-nxL2YKpbsj-45" value="" style="shape=table;startSize=0;container=1;collapsible=0;childLayout=tableLayout;fillColor=#ffe6cc;strokeColor=#d79b00;" parent="1" vertex="1">
          <mxGeometry x="1150" y="460" width="180" height="80" as="geometry" />
        </mxCell>
        <mxCell id="QXAxHVFIH-nxL2YKpbsj-46" value="" style="shape=tableRow;horizontal=0;startSize=0;swimlaneHead=0;swimlaneBody=0;strokeColor=inherit;top=0;left=0;bottom=0;right=0;collapsible=0;dropTarget=0;fillColor=none;points=[[0,0.5],[1,0.5]];portConstraint=eastwest;" parent="QXAxHVFIH-nxL2YKpbsj-45" vertex="1">
          <mxGeometry width="180" height="40" as="geometry" />
        </mxCell>
        <mxCell id="QXAxHVFIH-nxL2YKpbsj-47" value="&lt;b&gt;id&lt;/b&gt;" style="shape=partialRectangle;html=1;whiteSpace=wrap;connectable=0;strokeColor=inherit;overflow=hidden;fillColor=none;top=0;left=0;bottom=0;right=0;pointerEvents=1;" parent="QXAxHVFIH-nxL2YKpbsj-46" vertex="1">
          <mxGeometry width="60" height="40" as="geometry">
            <mxRectangle width="60" height="40" as="alternateBounds" />
          </mxGeometry>
        </mxCell>
        <mxCell id="QXAxHVFIH-nxL2YKpbsj-48" value="&lt;b&gt;salt&lt;/b&gt;" style="shape=partialRectangle;html=1;whiteSpace=wrap;connectable=0;strokeColor=inherit;overflow=hidden;fillColor=none;top=0;left=0;bottom=0;right=0;pointerEvents=1;" parent="QXAxHVFIH-nxL2YKpbsj-46" vertex="1">
          <mxGeometry x="60" width="60" height="40" as="geometry">
            <mxRectangle width="60" height="40" as="alternateBounds" />
          </mxGeometry>
        </mxCell>
        <mxCell id="QXAxHVFIH-nxL2YKpbsj-49" value="&lt;b&gt;hash&lt;/b&gt;" style="shape=partialRectangle;html=1;whiteSpace=wrap;connectable=0;strokeColor=inherit;overflow=hidden;fillColor=none;top=0;left=0;bottom=0;right=0;pointerEvents=1;" parent="QXAxHVFIH-nxL2YKpbsj-46" vertex="1">
          <mxGeometry x="120" width="60" height="40" as="geometry">
            <mxRectangle width="60" height="40" as="alternateBounds" />
          </mxGeometry>
        </mxCell>
        <mxCell id="QXAxHVFIH-nxL2YKpbsj-50" value="" style="shape=tableRow;horizontal=0;startSize=0;swimlaneHead=0;swimlaneBody=0;strokeColor=inherit;top=0;left=0;bottom=0;right=0;collapsible=0;dropTarget=0;fillColor=none;points=[[0,0.5],[1,0.5]];portConstraint=eastwest;" parent="QXAxHVFIH-nxL2YKpbsj-45" vertex="1">
          <mxGeometry y="40" width="180" height="40" as="geometry" />
        </mxCell>
        <mxCell id="QXAxHVFIH-nxL2YKpbsj-51" value="" style="shape=partialRectangle;html=1;whiteSpace=wrap;connectable=0;strokeColor=inherit;overflow=hidden;fillColor=none;top=0;left=0;bottom=0;right=0;pointerEvents=1;" parent="QXAxHVFIH-nxL2YKpbsj-50" vertex="1">
          <mxGeometry width="60" height="40" as="geometry">
            <mxRectangle width="60" height="40" as="alternateBounds" />
          </mxGeometry>
        </mxCell>
        <mxCell id="QXAxHVFIH-nxL2YKpbsj-52" value="&lt;span style=&quot;background-color: rgb(255, 206, 159);&quot;&gt;1&lt;/span&gt;" style="shape=partialRectangle;html=1;whiteSpace=wrap;connectable=0;strokeColor=inherit;overflow=hidden;fillColor=none;top=0;left=0;bottom=0;right=0;pointerEvents=1;" parent="QXAxHVFIH-nxL2YKpbsj-50" vertex="1">
          <mxGeometry x="60" width="60" height="40" as="geometry">
            <mxRectangle width="60" height="40" as="alternateBounds" />
          </mxGeometry>
        </mxCell>
        <mxCell id="QXAxHVFIH-nxL2YKpbsj-53" value="&lt;span style=&quot;background-color: rgb(248, 206, 204);&quot;&gt;2&lt;/span&gt;" style="shape=partialRectangle;html=1;whiteSpace=wrap;connectable=0;strokeColor=inherit;overflow=hidden;fillColor=none;top=0;left=0;bottom=0;right=0;pointerEvents=1;" parent="QXAxHVFIH-nxL2YKpbsj-50" vertex="1">
          <mxGeometry x="120" width="60" height="40" as="geometry">
            <mxRectangle width="60" height="40" as="alternateBounds" />
          </mxGeometry>
        </mxCell>
        <mxCell id="KrNdhbl7F8nNGSPyhRoK-3" style="edgeStyle=orthogonalEdgeStyle;rounded=0;orthogonalLoop=1;jettySize=auto;html=1;entryX=0;entryY=0.5;entryDx=0;entryDy=0;flowAnimation=1;" edge="1" parent="1" source="QXAxHVFIH-nxL2YKpbsj-56" target="QXAxHVFIH-nxL2YKpbsj-64">
          <mxGeometry relative="1" as="geometry" />
        </mxCell>
        <mxCell id="QXAxHVFIH-nxL2YKpbsj-56" value="Hash(password + Salt)" style="text;strokeColor=none;align=center;fillColor=none;html=1;verticalAlign=middle;whiteSpace=wrap;rounded=0;fontStyle=1;labelBackgroundColor=#F5F5F5;" parent="1" vertex="1">
          <mxGeometry x="655" y="664.8" width="160" height="30" as="geometry" />
        </mxCell>
        <mxCell id="QXAxHVFIH-nxL2YKpbsj-57" value="" style="rounded=1;whiteSpace=wrap;html=1;dashed=1;fillColor=#f8cecc;strokeColor=#b85450;shadow=0;glass=0;opacity=30;" parent="1" vertex="1">
          <mxGeometry x="1130" y="440" width="250" height="160" as="geometry" />
        </mxCell>
        <mxCell id="QXAxHVFIH-nxL2YKpbsj-58" value="DB" style="strokeWidth=2;html=1;shape=mxgraph.flowchart.database;whiteSpace=wrap;" parent="1" vertex="1">
          <mxGeometry x="1340" y="560" width="40" height="50" as="geometry" />
        </mxCell>
        <mxCell id="QXAxHVFIH-nxL2YKpbsj-59" value="Validate a Password" style="text;strokeColor=none;align=center;fillColor=none;html=1;verticalAlign=middle;whiteSpace=wrap;rounded=0;fontStyle=1" parent="1" vertex="1">
          <mxGeometry x="920" y="400" width="140" height="30" as="geometry" />
        </mxCell>
        <mxCell id="QXAxHVFIH-nxL2YKpbsj-63" value="" style="endArrow=classic;html=1;rounded=0;exitX=0.833;exitY=1.027;exitDx=0;exitDy=0;exitPerimeter=0;entryX=0.882;entryY=0.706;entryDx=0;entryDy=0;entryPerimeter=0;flowAnimation=1;" parent="1" source="QXAxHVFIH-nxL2YKpbsj-50" target="QXAxHVFIH-nxL2YKpbsj-39" edge="1">
          <mxGeometry width="50" height="50" relative="1" as="geometry">
            <mxPoint x="990" y="520" as="sourcePoint" />
            <mxPoint x="1040" y="470" as="targetPoint" />
          </mxGeometry>
        </mxCell>
        <mxCell id="QXAxHVFIH-nxL2YKpbsj-64" value="is equal?" style="rhombus;whiteSpace=wrap;html=1;" parent="1" vertex="1">
          <mxGeometry x="1250" y="639.8" width="100" height="80" as="geometry" />
        </mxCell>
        <mxCell id="QXAxHVFIH-nxL2YKpbsj-65" value="&lt;b&gt;2&lt;/b&gt;" style="text;strokeColor=none;align=center;fillColor=none;html=1;verticalAlign=middle;whiteSpace=wrap;rounded=0;" parent="1" vertex="1">
          <mxGeometry x="1010" y="530" width="60" height="30" as="geometry" />
        </mxCell>
        <mxCell id="QXAxHVFIH-nxL2YKpbsj-66" value="&lt;b&gt;3&lt;/b&gt;" style="text;strokeColor=none;align=center;fillColor=none;html=1;verticalAlign=middle;whiteSpace=wrap;rounded=0;" parent="1" vertex="1">
          <mxGeometry x="690" y="634.8" width="60" height="30" as="geometry" />
        </mxCell>
        <mxCell id="KrNdhbl7F8nNGSPyhRoK-4" value="&lt;b&gt;4&lt;/b&gt;" style="text;strokeColor=none;align=center;fillColor=none;html=1;verticalAlign=middle;whiteSpace=wrap;rounded=0;" vertex="1" parent="1">
          <mxGeometry x="1000" y="650" width="60" height="30" as="geometry" />
        </mxCell>
      </root>
    </mxGraphModel>
  </diagram>
</mxfile>
